<svg xmlns="http://www.w3.org/2000/svg" width="880" height="340" viewBox="0 0 880 340" role="img" aria-label="Terminal: enoch@prod. Backend and AI engineer. Active (running) since 2021. Go, Python, TypeScript. Docker, Kubernetes, Cloud Run. Accepts agency subcontracts, backend-heavy.">
<style>@keyframes fade{to{opacity:1}}@keyframes wipe{from{width:0}to{width:820px}}@keyframes blink{0%,49%{opacity:1}50%,100%{opacity:0}}@keyframes pulse{0%,100%{opacity:1}50%{opacity:.35}}.cur{animation:blink 1.06s step-end infinite}.dot{animation:pulse 2.4s ease-in-out infinite}.l0{opacity:0;animation:fade .32s ease-out 0.30s forwards}.w0{animation:wipe .55s steps(28,end) 0.30s forwards}.l1{opacity:0;animation:fade .32s ease-out 1.15s forwards}.w1{animation:wipe .55s steps(28,end) 1.15s forwards}.l2{opacity:0;animation:fade .32s ease-out 1.70s forwards}.w2{animation:wipe .55s steps(28,end) 1.70s forwards}.l3{opacity:0;animation:fade .32s ease-out 2.55s forwards}.w3{animation:wipe .55s steps(28,end) 2.55s forwards}.l4{opacity:0;animation:fade .32s ease-out 2.95s forwards}.w4{animation:wipe .55s steps(28,end) 2.95s forwards}.l5{opacity:0;animation:fade .32s ease-out 3.25s forwards}.w5{animation:wipe .55s steps(28,end) 3.25s forwards}.l6{opacity:0;animation:fade .32s ease-out 3.55s forwards}.w6{animation:wipe .55s steps(28,end) 3.55s forwards}@media (prefers-reduced-motion:reduce){*{animation:none!important;opacity:1!important}[class^=w]{width:820px!important}}</style>
<rect width="880" height="340" rx="14" fill="#0d1117"/>
<g stroke="#21262d" stroke-width="1" opacity="0.55">
<line x1="0" y1="46" x2="0" y2="340"/>
<line x1="40" y1="46" x2="40" y2="340"/>
<line x1="80" y1="46" x2="80" y2="340"/>
<line x1="120" y1="46" x2="120" y2="340"/>
<line x1="160" y1="46" x2="160" y2="340"/>
<line x1="200" y1="46" x2="200" y2="340"/>
<line x1="240" y1="46" x2="240" y2="340"/>
<line x1="280" y1="46" x2="280" y2="340"/>
<line x1="320" y1="46" x2="320" y2="340"/>
<line x1="360" y1="46" x2="360" y2="340"/>
<line x1="400" y1="46" x2="400" y2="340"/>
<line x1="440" y1="46" x2="440" y2="340"/>
<line x1="480" y1="46" x2="480" y2="340"/>
<line x1="520" y1="46" x2="520" y2="340"/>
<line x1="560" y1="46" x2="560" y2="340"/>
<line x1="600" y1="46" x2="600" y2="340"/>
<line x1="640" y1="46" x2="640" y2="340"/>
<line x1="680" y1="46" x2="680" y2="340"/>
<line x1="720" y1="46" x2="720" y2="340"/>
<line x1="760" y1="46" x2="760" y2="340"/>
<line x1="800" y1="46" x2="800" y2="340"/>
<line x1="840" y1="46" x2="840" y2="340"/>
</g>
<rect x="0.5" y="0.5" width="879" height="339" rx="14" fill="none" stroke="#30363d"/>
<path d="M0 14a14 14 0 0 1 14-14h852a14 14 0 0 1 14 14v32H0z" fill="#161b22"/>
<line x1="0" y1="46" x2="880" y2="46" stroke="#30363d"/>
<circle cx="26" cy="23" r="6" fill="#ff7b72"/>
<circle cx="46" cy="23" r="6" fill="#d29922"/>
<circle cx="66" cy="23" r="6" fill="#3fb950"/>
<text x="440.0" y="28" text-anchor="middle" font-family="ui-monospace,SFMono-Regular,'SF Mono',Menlo,Consolas,'Liberation Mono',monospace" font-size="12.5" fill="#8b949e">enoch@prod — status</text>
<circle class="dot" cx="846" cy="23" r="4.5" fill="#3fb950"/>
<g class="l0">
<clipPath id="cd0"><rect class="w0" x="34" y="92" width="0" height="24"/></clipPath>
<g clip-path="url(#cd0)">
<text x="34" y="108" font-family="ui-monospace,SFMono-Regular,'SF Mono',Menlo,Consolas,'Liberation Mono',monospace" font-size="15" xml:space="preserve"><tspan fill="#3fb950" font-weight="700">enoch@prod</tspan><tspan fill="#8b949e">:</tspan><tspan fill="#58a6ff">~</tspan><tspan fill="#8b949e">$ </tspan><tspan fill="#c9d1d9">whoami</tspan></text>
</g></g>
<g class="l1">
<clipPath id="cd1"><rect class="w1" x="34" y="120" width="0" height="24"/></clipPath>
<g clip-path="url(#cd1)">
<text x="34" y="136" font-family="ui-monospace,SFMono-Regular,'SF Mono',Menlo,Consolas,'Liberation Mono',monospace" font-size="15" xml:space="preserve"><tspan fill="#c9d1d9" font-weight="700">backend + AI engineer</tspan><tspan fill="#8b949e">  ·  Figma → deploy, one pair of hands</tspan></text>
</g></g>
<g class="l2">
<clipPath id="cd2"><rect class="w2" x="34" y="166" width="0" height="24"/></clipPath>
<g clip-path="url(#cd2)">
<text x="34" y="182" font-family="ui-monospace,SFMono-Regular,'SF Mono',Menlo,Consolas,'Liberation Mono',monospace" font-size="15" xml:space="preserve"><tspan fill="#3fb950" font-weight="700">enoch@prod</tspan><tspan fill="#8b949e">:</tspan><tspan fill="#58a6ff">~</tspan><tspan fill="#8b949e">$ </tspan><tspan fill="#c9d1d9">systemctl status --me</tspan></text>
</g></g>
<g class="l3">
<clipPath id="cd3"><rect class="w3" x="34" y="194" width="0" height="24"/></clipPath>
<g clip-path="url(#cd3)">
<text x="34" y="210" font-family="ui-monospace,SFMono-Regular,'SF Mono',Menlo,Consolas,'Liberation Mono',monospace" font-size="15" xml:space="preserve"><tspan fill="#3fb950" font-weight="700">●</tspan><tspan fill="#c9d1d9"> active (running)</tspan><tspan fill="#8b949e">   since 2021  ·  153 repos  ·  12 shipping</tspan></text>
</g></g>
<g class="l4">
<clipPath id="cd4"><rect class="w4" x="34" y="218" width="0" height="24"/></clipPath>
<g clip-path="url(#cd4)">
<text x="34" y="234" font-family="ui-monospace,SFMono-Regular,'SF Mono',Menlo,Consolas,'Liberation Mono',monospace" font-size="15" xml:space="preserve"><tspan fill="#8b949e">  services</tspan><tspan fill="#58a6ff">  Go · Python · TypeScript</tspan></text>
</g></g>
<g class="l5">
<clipPath id="cd5"><rect class="w5" x="34" y="242" width="0" height="24"/></clipPath>
<g clip-path="url(#cd5)">
<text x="34" y="258" font-family="ui-monospace,SFMono-Regular,'SF Mono',Menlo,Consolas,'Liberation Mono',monospace" font-size="15" xml:space="preserve"><tspan fill="#8b949e">  infra   </tspan><tspan fill="#bc8cff">  Docker · Kubernetes · Cloud Run</tspan></text>
</g></g>
<g class="l6">
<clipPath id="cd6"><rect class="w6" x="34" y="266" width="0" height="24"/></clipPath>
<g clip-path="url(#cd6)">
<text x="34" y="282" font-family="ui-monospace,SFMono-Regular,'SF Mono',Menlo,Consolas,'Liberation Mono',monospace" font-size="15" xml:space="preserve"><tspan fill="#8b949e">  accepts </tspan><tspan fill="#d29922">  agency subcontracts, backend-heavy</tspan></text>
</g></g>
<g style="opacity:0;animation:fade .3s ease-out 4.00s forwards">
<text x="34" y="310" font-family="ui-monospace,SFMono-Regular,'SF Mono',Menlo,Consolas,'Liberation Mono',monospace" font-size="15" xml:space="preserve"><tspan fill="#3fb950" font-weight="700">enoch@prod</tspan><tspan fill="#8b949e">:</tspan><tspan fill="#58a6ff">~</tspan><tspan fill="#8b949e">$ </tspan></text>
<rect class="cur" x="156" y="298" width="9" height="16" fill="#c9d1d9"/>
</g>
</svg>